<svg xmlns="http://www.w3.org/2000/svg" width="88" height="88" viewBox="0 0 88 88">
  <title>2</title>
  <g>
    <circle cx="44" cy="44" r="44" style="fill: #4171c4"/>
    <path d="M18.44,23.06a2.53,2.53,0,0,1,2.5-2.56h5a2.51,2.51,0,0,1,2.44,2l7.05,31.24H56.49l6.25-25.55H43.44a2.56,2.56,0,0,1,0-5.11h22.5a2.47,2.47,0,0,1,2,1,2.57,2.57,0,0,1,.46,2.19L60.87,56.9a2.51,2.51,0,0,1-2.43,1.93h-25a2.51,2.51,0,0,1-2.43-2L24,25.61h-3A2.52,2.52,0,0,1,18.44,23.06Zm20,2.55a2.5,2.5,0,1,1-2.5-2.55A2.53,2.53,0,0,1,38.44,25.61Zm10,10.22a2.5,2.5,0,1,0-5,0v4.06l-.73-.75a2.45,2.45,0,0,0-3.53,0,2.58,2.58,0,0,0,0,3.61l5,5.11a2.45,2.45,0,0,0,3.53,0l5-5.11a2.58,2.58,0,0,0,0-3.61,2.45,2.45,0,0,0-3.53,0l-.74.75ZM35.94,66.5a2.56,2.56,0,1,0-2.5-2.56A2.53,2.53,0,0,0,35.94,66.5Zm22.5-2.56a2.5,2.5,0,1,1-2.5-2.55A2.53,2.53,0,0,1,58.44,63.94Z" style="fill: #fff;fill-rule: evenodd"/>
  </g>
</svg>
