<svg xmlns="http://www.w3.org/2000/svg" width="88" height="88" viewBox="0 0 88 88">
  <title>Ресурс 1</title>
  <g>
    <circle cx="44" cy="44" r="44" style="fill: #e5333d"/>
    <path d="M43.56,28.12a15.5,15.5,0,1,0,15.5,15.5A15.49,15.49,0,0,0,43.56,28.12Zm4,21a5.5,5.5,0,0,1-3.17,1.17v1.41H43.09V50.31a9.42,9.42,0,0,1-4.81-2.11l1.4-1.76a7.51,7.51,0,0,0,3.41,1.76V44.44A7.81,7.81,0,0,1,39.8,43a3.65,3.65,0,0,1-.94-2.58A3.61,3.61,0,0,1,40,37.63a5.07,5.07,0,0,1,3.05-1.17v-.94h1.29v1a8.06,8.06,0,0,1,4.11,1.53L47.2,39.86a7.4,7.4,0,0,0-2.82-1.17v3.64a8,8,0,0,1,3.29,1.4,3.3,3.3,0,0,1,1,2.59A3.17,3.17,0,0,1,47.55,49.14Z" style="fill: #fff"/>
    <path d="M41.21,40.21a1.47,1.47,0,0,0,.35,1.06,3.74,3.74,0,0,0,1.53.7v-3.4a2.47,2.47,0,0,0-1.41.47A2.1,2.1,0,0,0,41.21,40.21Z" style="fill: #fff"/>
    <path d="M44.38,44.67V48.2a3.06,3.06,0,0,0,1.53-.59,1.63,1.63,0,0,0,.58-1.17A1.13,1.13,0,0,0,46,45.38,5.55,5.55,0,0,0,44.38,44.67Z" style="fill: #fff"/>
    <path d="M20.55,42.21A23,23,0,0,1,59.53,27l-2.35-.36a2.37,2.37,0,0,0-2.59,1.88,2.45,2.45,0,0,0,1.88,2.59l8,1.05h.35a2.27,2.27,0,0,0,1.41-.47A2,2,0,0,0,67,30.12l1.06-8a2.26,2.26,0,1,0-4.46-.7l-.36,2.7a27.37,27.37,0,0,0-19.37-8.34,28.71,28.71,0,0,0-19.61,8.1A28,28,0,0,0,16,42a2.09,2.09,0,0,0,2.11,2.35h.12A2.32,2.32,0,0,0,20.55,42.21Z" style="fill: #fff"/>
    <path d="M69,42.91A2.16,2.16,0,0,0,66.69,45a23.06,23.06,0,0,1-39.1,15.14l2.58.24a2.25,2.25,0,1,0,.47-4.47l-8.21-.82a2.15,2.15,0,0,0-1.65.47A2.46,2.46,0,0,0,20,57.12l-.82,8a2.25,2.25,0,0,0,2,2.47h.24a2.19,2.19,0,0,0,2.23-2L23.83,63a27.4,27.4,0,0,0,19.61,8.22A27.53,27.53,0,0,0,71,45.38,2.25,2.25,0,0,0,69,42.91Z" style="fill: #fff"/>
  </g>
</svg>
