<svg xmlns="http://www.w3.org/2000/svg" width="88" height="88" viewBox="0 0 88 88">
  <title>Ресурс 3</title>
  <g>
    <circle cx="44" cy="44" r="44" style="fill: #8555c1"/>
    <g>
      <path d="M28.42,54.81H19L31,66.93V57.47a2.66,2.66,0,0,0-2.62-2.66Z" style="fill: #fff"/>
      <path d="M55.44,15.15H21.61A2.63,2.63,0,0,0,19,17.81V52.33h9.42a5.16,5.16,0,0,1,5.15,5.15v9.45H45.12a13.35,13.35,0,0,1-1-5.15A13.88,13.88,0,0,1,58,48h.13V17.81a2.6,2.6,0,0,0-.21-1,2.65,2.65,0,0,0-.58-.87,2.72,2.72,0,0,0-.88-.57A2.55,2.55,0,0,0,55.44,15.15ZM52.23,44.37H24.82a1.12,1.12,0,0,1-.51-.06,1.5,1.5,0,0,1-.44-.26,1.28,1.28,0,0,1-.41-.92,1.26,1.26,0,0,1,.11-.51,1.25,1.25,0,0,1,.3-.42,1.5,1.5,0,0,1,.44-.26,1.28,1.28,0,0,1,.51-.06H52.24a1.26,1.26,0,0,1,.51.06,1.5,1.5,0,0,1,.44.26,1.25,1.25,0,0,1,.3.42,1.21,1.21,0,0,1,0,1,1.25,1.25,0,0,1-.3.42,1.5,1.5,0,0,1-.44.26,1.11,1.11,0,0,1-.51.06Zm0-7.47H24.82a1.29,1.29,0,0,1-.51-.07,1.17,1.17,0,0,1-.44-.26,1.25,1.25,0,0,1-.3-.42,1.22,1.22,0,0,1-.11-.5,1.28,1.28,0,0,1,.41-.92,1.17,1.17,0,0,1,.44-.26,1.29,1.29,0,0,1,.51-.07H52.24a1.26,1.26,0,0,1,.51.07,1.17,1.17,0,0,1,.44.26,1.28,1.28,0,0,1,.41.92,1.22,1.22,0,0,1-.11.5,1.25,1.25,0,0,1-.3.42,1.17,1.17,0,0,1-.44.26,1.26,1.26,0,0,1-.51.07Zm0-7.49H24.82a1.12,1.12,0,0,1-.51-.06,1.31,1.31,0,0,1-.44-.26,1.28,1.28,0,0,1-.41-.92,1.26,1.26,0,0,1,.11-.51,1.12,1.12,0,0,1,.3-.41,1.34,1.34,0,0,1,.44-.27,1.49,1.49,0,0,1,.51-.06H52.24a1.46,1.46,0,0,1,.51.06,1.34,1.34,0,0,1,.44.27,1.12,1.12,0,0,1,.3.41,1.21,1.21,0,0,1,0,1,1.25,1.25,0,0,1-.3.42,1.31,1.31,0,0,1-.44.26,1.11,1.11,0,0,1-.51.06Zm0-7.47H24.82a1.49,1.49,0,0,1-.51-.06,1.34,1.34,0,0,1-.44-.27,1.15,1.15,0,0,1-.3-.42,1.22,1.22,0,0,1-.11-.5,1.28,1.28,0,0,1,.41-.92,1.17,1.17,0,0,1,.44-.26,1.12,1.12,0,0,1,.51-.06H52.24a1.11,1.11,0,0,1,.51.06,1.17,1.17,0,0,1,.44.26,1.28,1.28,0,0,1,.41.92,1.22,1.22,0,0,1-.11.5,1.15,1.15,0,0,1-.3.42,1.34,1.34,0,0,1-.44.27,1.46,1.46,0,0,1-.51.06Z" style="fill: #fff"/>
      <path d="M58.11,50.73H58A11.11,11.11,0,0,0,46.87,61.78a10.86,10.86,0,0,0,1.28,5.15,11.06,11.06,0,1,0,10-16.2Zm-4,16.68L50.49,63.8a1.49,1.49,0,1,1,2.11-2.11l2.56,2.56,8.12-8.11a1.5,1.5,0,0,1,2.12,2.12l-9.17,9.17a1.52,1.52,0,0,1-1,.42,1.55,1.55,0,0,1-1-.43Z" style="fill: #fff"/>
    </g>
  </g>
</svg>
