<svg xmlns="http://www.w3.org/2000/svg" width="88" height="88" viewBox="0 0 88 88">
  <title>111</title>
  <g>
    <circle cx="44" cy="44" r="44" style="fill: #6ccc3e"/>
    <path d="M51,33.5H62L48.5,20V31A2.36,2.36,0,0,0,51,33.5Zm0,5A7.37,7.37,0,0,1,43.5,31V18.5H31A7.37,7.37,0,0,0,23.5,26V61A7.37,7.37,0,0,0,31,68.5H56A7.37,7.37,0,0,0,63.5,61V38.5Zm-15-5h2.5a2.5,2.5,0,0,1,0,5H36a2.5,2.5,0,0,1,0-5Zm15,25H36a2.5,2.5,0,0,1,0-5H51a2.5,2.5,0,0,1,0,5Zm0-10H36a2.5,2.5,0,0,1,0-5H51a2.5,2.5,0,0,1,0,5Z" style="fill: #fff"/>
  </g>
</svg>
